<svg width="384" height="460" viewBox="0 0 384 460" fill="none" xmlns="http://www.w3.org/2000/svg">
<rect width="384" height="460" fill="#212121"/>
<path d="M124.032 276.5L100.48 183.06H117.12L131.2 243.988C131.968 246.975 132.693 250.175 133.376 253.588C134.059 257.001 134.571 259.775 134.912 261.908C135.253 259.775 135.723 257.001 136.32 253.588C136.917 250.175 137.557 246.932 138.24 243.86L152.192 183.06H168.32L144.768 276.5H124.032ZM177.23 276.5L200.782 183.06H221.39L245.07 276.5H228.686L223.566 253.844H198.734L193.614 276.5H177.23ZM201.678 240.788H220.622L214.99 215.7C214.051 211.519 213.241 207.764 212.558 204.436C211.875 201.023 211.406 198.548 211.15 197.012C210.894 198.548 210.425 201.023 209.742 204.436C209.145 207.764 208.334 211.476 207.31 215.572L201.678 240.788ZM268.7 277.14C266.865 277.14 265.393 276.607 264.284 275.54C263.217 274.473 262.684 273.023 262.684 271.188C262.684 269.353 263.217 267.903 264.284 266.836C265.393 265.727 266.865 265.172 268.7 265.172C270.535 265.172 271.985 265.727 273.052 266.836C274.161 267.903 274.716 269.353 274.716 271.188C274.716 273.023 274.161 274.473 273.052 275.54C271.985 276.607 270.535 277.14 268.7 277.14Z" fill="white"/>
</svg>
