<svg width="200" height="200" viewBox="0 0 200 200" fill="none" xmlns="http://www.w3.org/2000/svg">
<rect width="200" height="200" fill="#1D1D1D"/>
<path d="M93.516 97L89.892 88.6H91.992L95.16 96.04H93.924L97.14 88.6H99.072L95.436 97H93.516ZM99.5881 97L103.332 88.6H105.252L109.008 97H106.968L103.896 89.584H104.664L101.58 97H99.5881ZM101.46 95.2L101.976 93.724H106.296L106.824 95.2H101.46ZM112.042 97.096C111.722 97.096 111.446 96.988 111.214 96.772C110.99 96.548 110.878 96.264 110.878 95.92C110.878 95.576 110.99 95.3 111.214 95.092C111.446 94.876 111.722 94.768 112.042 94.768C112.37 94.768 112.646 94.876 112.87 95.092C113.094 95.3 113.206 95.576 113.206 95.92C113.206 96.264 113.094 96.548 112.87 96.772C112.646 96.988 112.37 97.096 112.042 97.096Z" fill="white"/>
</svg>
